Coordinates
version=1
nRows=12
nColumns=28
inDegrees=yes

Units are S.I. units (second, meters, Newtons, ...)
Angles are in degrees.

endheader
time	pelvis_tilt	pelvis_list	pelvis_rotation	pelvis_tx	pelvis_ty	pelvis_tz	hip_flexion_r	hip_adduction_r	hip_rotation_r	knee_angle_r	ankle_angle_r	subtalar_angle_r	mtp_angle_r	hip_flexion_l	hip_adduction_l	hip_rotation_l	knee_angle_l	socket_flexion	socket_adduction	socket_rotation	socket_tx	socket_ty	socket_tz	foot_flex	lumbar_extension	lumbar_bending	lumbar_rotation
      0.95000000	      5.00195976	     -0.06356523	     -3.92358643	      0.42466001	      1.03900477	      0.32456923	     -0.46689042	      2.28853262	     -6.27260116	    -19.21758281	     12.79163497	      2.75328513	     13.30084523	      4.50281122	     -3.70554451	     -4.69648709	    -52.20559349	     -1.35133786	      0.00000000	      0.00000000	      0.00000000	      0.00000000	      0.00000000	      0.61583748	    -12.10135727	      0.44297728	      5.38073380
      0.95416667	      5.00514918	      0.09540944	     -4.18316225	      0.42942640	      1.03982490	      0.32525387	     -0.90803523	      2.07794482	     -6.26608593	    -18.89118327	     12.68405616	      3.10741992	     13.37141597	      5.03913808	     -3.54274794	     -4.67580201	    -51.69666993	     -1.29518449	      0.00000000	      0.00000000	      0.00000000	      0.00000000	      0.00000000	      0.63816521	    -12.15246013	      0.16672542	      5.61125864
      0.95833333	      5.21720594	      0.40901514	     -4.49531796	      0.43426952	      1.04090223	      0.32576873	     -1.41677243	      1.55200136	     -6.70931060	    -18.86574602	     12.58925537	      4.32068277	     14.62715518	      5.23975838	     -3.14582728	     -4.65818884	    -50.85349047	     -1.08109065	      0.00000000	      0.00000000	      0.00000000	      0.00000000	      0.00000000	      0.67182610	    -12.41300422	     -0.29499999	      6.03898549
      0.96250000	      5.23271590	      0.41448479	     -4.75189790	      0.43867054	      1.04146857	      0.32627527	     -1.74477882	      1.48378855	     -6.74742468	    -18.78636217	     12.58339192	      4.35859168	     14.63285432	      5.83675909	     -3.14660425	     -4.61072289	    -50.54130583	     -1.19339582	      0.00000000	      0.00000000	      0.00000000	      0.00000000	      0.00000000	      0.68045965	    -12.54297400	     -0.31860329	      6.06397119
      0.96666667	      5.11048077	      0.55171689	     -4.90191120	      0.44370808	      1.04215096	      0.32680262	     -2.23127582	      1.35407695	     -6.55296143	    -18.12086128	     12.44687282	      4.69538987	     14.65410812	      6.44652885	     -2.98327567	     -4.39459796	    -49.82299838	     -1.08421414	      0.00000000	      0.00000000	      0.00000000	      0.00000000	      0.00000000	      0.61287625	    -12.38875875	     -0.55822953	      6.25462969
      0.97083333	      5.12514738	      0.53999505	     -5.17820303	      0.44801191	      1.04260249	      0.32729160	     -2.52691592	      1.28215850	     -6.61408949	    -18.07725013	     12.43102753	      4.72396361	     14.65668780	      7.02414565	     -3.00399615	     -4.33577462	    -49.45746093	     -1.20768446	      0.00000000	      0.00000000	      0.00000000	      0.00000000	      0.00000000	      0.64343786	    -12.54274926	     -0.57122854	      6.28275744
      0.97500000	      5.03218353	      0.81467192	     -5.40509484	      0.45317838	      1.04340081	      0.32799490	     -3.01058954	      0.98288833	     -6.47271956	    -17.44906783	     12.04529156	      5.18052940	     14.72106175	      7.45620135	     -2.68873238	     -4.20538634	    -48.29824886	     -0.82321969	      0.00000000	      0.00000000	      0.00000000	      0.00000000	      0.00000000	      0.70660348	    -12.37826491	     -0.99159238	      6.69265375
      0.97916667	      5.05242556	      0.78677718	     -5.66655839	      0.45746014	      1.04371771	      0.32847702	     -3.30600711	      0.93351461	     -6.51887516	    -17.43601293	     12.05968079	      5.20506398	     14.73127934	      8.02299317	     -2.72773904	     -4.11773632	    -47.91943130	     -0.98423651	      0.00000000	      0.00000000	      0.00000000	      0.00000000	      0.00000000	      0.71390552	    -12.53236793	     -1.00212911	      6.71238372
      0.98333333	      5.04292897	      1.03418381	     -5.88340663	      0.46246420	      1.04451290	      0.32910003	     -3.84630997	      0.64137584	     -6.39050163	    -16.85510881	     11.87876136	      5.69985320	     14.98261414	      8.33801118	     -2.42739279	     -3.93869320	    -46.65837810	     -0.58525280	      0.00000000	      0.00000000	      0.00000000	      0.00000000	      0.00000000	      0.68840077	    -12.49735049	     -1.38189417	      7.13503355
      0.98750000	      4.99152647	      1.00718054	     -6.05156706	      0.46687228	      1.04483092	      0.32946869	     -4.18907063	      0.63563902	     -6.33113388	    -16.60016885	     11.89710700	      5.86395386	     15.03340905	      8.90571851	     -2.44178986	     -3.69402631	    -45.99880208	     -0.57285492	      0.00000000	      0.00000000	      0.00000000	      0.00000000	      0.00000000	      0.65000245	    -12.55586664	     -1.37869322	      7.21557502
      0.99166667	      4.96165411	      1.15007135	     -6.25169956	      0.47166299	      1.04527306	      0.33006512	     -4.62590851	      0.44111705	     -6.31945145	    -16.18859416	     11.66285325	      6.09762017	     15.18342892	      9.31556067	     -2.28335575	     -3.51133257	    -45.00066019	     -0.38695192	      0.00000000	      0.00000000	      0.00000000	      0.00000000	      0.00000000	      0.70792896	    -12.53177070	     -1.62704442	      7.38008439
      0.99583333	      4.96783570	      1.10174664	     -6.50301732	      0.47591267	      1.04531871	      0.33054560	     -4.90240005	      0.41183074	     -6.35963161	    -16.17766466	     11.67927406	      6.12120185	     15.19399896	      9.86640592	     -2.35258791	     -3.38420908	    -44.56413150	     -0.58339211	      0.00000000	      0.00000000	      0.00000000	      0.00000000	      0.00000000	      0.71986395	    -12.68409525	     -1.63341184	      7.39348915
